<svg width="293" height="44" viewBox="0 0 293 44" fill="none" xmlns="http://www.w3.org/2000/svg">
<path d="M13.048 0.399998C17.336 0.399998 20.696 1.424 23.128 3.472C25.56 5.52 26.776 8.336 26.776 11.92C26.776 15.504 25.56 18.32 23.128 20.368C20.696 22.384 17.336 23.392 13.048 23.392H4.024V34H0.472V0.399998H13.048ZM12.952 20.272C16.28 20.272 18.824 19.552 20.584 18.112C22.344 16.64 23.224 14.576 23.224 11.92C23.224 9.2 22.344 7.12 20.584 5.68C18.824 4.208 16.28 3.472 12.952 3.472H4.024V20.272H12.952ZM36.3441 13.696C37.1441 12 38.3281 10.72 39.8961 9.856C41.4961 8.992 43.4641 8.56 45.8001 8.56V11.872L44.9841 11.824C42.3281 11.824 40.2481 12.64 38.7441 14.272C37.2401 15.904 36.4881 18.192 36.4881 21.136V34H33.0801V8.752H36.3441V13.696ZM62.0564 34.24C59.6244 34.24 57.4324 33.696 55.4804 32.608C53.5284 31.488 51.9924 29.952 50.8724 28C49.7524 26.048 49.1924 23.84 49.1924 21.376C49.1924 18.912 49.7524 16.704 50.8724 14.752C51.9924 12.8 53.5284 11.28 55.4804 10.192C57.4324 9.104 59.6244 8.56 62.0564 8.56C64.4884 8.56 66.6804 9.104 68.6324 10.192C70.5844 11.28 72.1044 12.8 73.1924 14.752C74.3124 16.704 74.8724 18.912 74.8724 21.376C74.8724 23.84 74.3124 26.048 73.1924 28C72.1044 29.952 70.5844 31.488 68.6324 32.608C66.6804 33.696 64.4884 34.24 62.0564 34.24ZM62.0564 31.216C63.8484 31.216 65.4484 30.816 66.8564 30.016C68.2964 29.184 69.4164 28.016 70.2164 26.512C71.0164 25.008 71.4164 23.296 71.4164 21.376C71.4164 19.456 71.0164 17.744 70.2164 16.24C69.4164 14.736 68.2964 13.584 66.8564 12.784C65.4484 11.952 63.8484 11.536 62.0564 11.536C60.2644 11.536 58.6484 11.952 57.2084 12.784C55.8004 13.584 54.6804 14.736 53.8484 16.24C53.0484 17.744 52.6484 19.456 52.6484 21.376C52.6484 23.296 53.0484 25.008 53.8484 26.512C54.6804 28.016 55.8004 29.184 57.2084 30.016C58.6484 30.816 60.2644 31.216 62.0564 31.216ZM105.206 8.752V30.928C105.206 35.216 104.15 38.384 102.038 40.432C99.9581 42.512 96.8061 43.552 92.5821 43.552C90.2461 43.552 88.0221 43.2 85.9101 42.496C83.8301 41.824 82.1341 40.88 80.8221 39.664L82.5501 37.072C83.7661 38.16 85.2381 39.008 86.9661 39.616C88.7261 40.224 90.5661 40.528 92.4861 40.528C95.6861 40.528 98.0381 39.776 99.5421 38.272C101.046 36.8 101.798 34.496 101.798 31.36V28.144C100.742 29.744 99.3501 30.96 97.6221 31.792C95.9261 32.624 94.0381 33.04 91.9581 33.04C89.5901 33.04 87.4301 32.528 85.4781 31.504C83.5581 30.448 82.0381 28.992 80.9181 27.136C79.8301 25.248 79.2861 23.12 79.2861 20.752C79.2861 18.384 79.8301 16.272 80.9181 14.416C82.0381 12.56 83.5581 11.12 85.4781 10.096C87.3981 9.072 89.5581 8.56 91.9581 8.56C94.1021 8.56 96.0381 8.992 97.7661 9.856C99.4941 10.72 100.886 11.968 101.942 13.6V8.752H105.206ZM92.2941 30.016C94.1181 30.016 95.7661 29.632 97.2381 28.864C98.7101 28.064 99.8461 26.96 100.646 25.552C101.478 24.144 101.894 22.544 101.894 20.752C101.894 18.96 101.478 17.376 100.646 16C99.8461 14.592 98.7101 13.504 97.2381 12.736C95.7981 11.936 94.1501 11.536 92.2941 11.536C90.4701 11.536 88.8221 11.92 87.3501 12.688C85.9101 13.456 84.7741 14.544 83.9421 15.952C83.1421 17.36 82.7421 18.96 82.7421 20.752C82.7421 22.544 83.1421 24.144 83.9421 25.552C84.7741 26.96 85.9101 28.064 87.3501 28.864C88.8221 29.632 90.4701 30.016 92.2941 30.016ZM118 13.696C118.8 12 119.984 10.72 121.552 9.856C123.152 8.992 125.12 8.56 127.456 8.56V11.872L126.64 11.824C123.984 11.824 121.904 12.64 120.4 14.272C118.896 15.904 118.144 18.192 118.144 21.136V34H114.736V8.752H118V13.696ZM155.377 22.432H134.257C134.449 25.056 135.457 27.184 137.281 28.816C139.105 30.416 141.409 31.216 144.193 31.216C145.761 31.216 147.201 30.944 148.513 30.4C149.825 29.824 150.961 28.992 151.921 27.904L153.841 30.112C152.721 31.456 151.313 32.48 149.617 33.184C147.953 33.888 146.113 34.24 144.097 34.24C141.505 34.24 139.201 33.696 137.185 32.608C135.201 31.488 133.649 29.952 132.529 28C131.409 26.048 130.849 23.84 130.849 21.376C130.849 18.912 131.377 16.704 132.433 14.752C133.521 12.8 134.993 11.28 136.849 10.192C138.737 9.104 140.849 8.56 143.185 8.56C145.521 8.56 147.617 9.104 149.473 10.192C151.329 11.28 152.785 12.8 153.841 14.752C154.897 16.672 155.425 18.88 155.425 21.376L155.377 22.432ZM143.185 11.488C140.753 11.488 138.705 12.272 137.041 13.84C135.409 15.376 134.481 17.392 134.257 19.888H152.161C151.937 17.392 150.993 15.376 149.329 13.84C147.697 12.272 145.649 11.488 143.185 11.488ZM169.129 34.24C167.081 34.24 165.113 33.952 163.225 33.376C161.369 32.768 159.913 32.016 158.857 31.12L160.393 28.432C161.449 29.264 162.777 29.952 164.377 30.496C165.977 31.008 167.641 31.264 169.369 31.264C171.673 31.264 173.369 30.912 174.457 30.208C175.577 29.472 176.137 28.448 176.137 27.136C176.137 26.208 175.833 25.488 175.225 24.976C174.617 24.432 173.849 24.032 172.921 23.776C171.993 23.488 170.761 23.216 169.225 22.96C167.177 22.576 165.529 22.192 164.281 21.808C163.033 21.392 161.961 20.704 161.065 19.744C160.201 18.784 159.769 17.456 159.769 15.76C159.769 13.648 160.649 11.92 162.409 10.576C164.169 9.232 166.617 8.56 169.753 8.56C171.385 8.56 173.017 8.784 174.649 9.232C176.281 9.648 177.625 10.208 178.681 10.912L177.193 13.648C175.113 12.208 172.633 11.488 169.753 11.488C167.577 11.488 165.929 11.872 164.809 12.64C163.721 13.408 163.177 14.416 163.177 15.664C163.177 16.624 163.481 17.392 164.089 17.968C164.729 18.544 165.513 18.976 166.441 19.264C167.369 19.52 168.649 19.792 170.281 20.08C172.297 20.464 173.913 20.848 175.129 21.232C176.345 21.616 177.385 22.272 178.249 23.2C179.113 24.128 179.545 25.408 179.545 27.04C179.545 29.248 178.617 31.008 176.761 32.32C174.937 33.6 172.393 34.24 169.129 34.24ZM192.614 34.24C190.566 34.24 188.598 33.952 186.71 33.376C184.854 32.768 183.398 32.016 182.342 31.12L183.878 28.432C184.934 29.264 186.262 29.952 187.862 30.496C189.462 31.008 191.126 31.264 192.854 31.264C195.158 31.264 196.854 30.912 197.942 30.208C199.062 29.472 199.622 28.448 199.622 27.136C199.622 26.208 199.318 25.488 198.71 24.976C198.102 24.432 197.334 24.032 196.406 23.776C195.478 23.488 194.246 23.216 192.71 22.96C190.662 22.576 189.014 22.192 187.766 21.808C186.518 21.392 185.446 20.704 184.55 19.744C183.686 18.784 183.254 17.456 183.254 15.76C183.254 13.648 184.134 11.92 185.894 10.576C187.654 9.232 190.102 8.56 193.238 8.56C194.87 8.56 196.502 8.784 198.134 9.232C199.766 9.648 201.11 10.208 202.166 10.912L200.678 13.648C198.598 12.208 196.118 11.488 193.238 11.488C191.062 11.488 189.414 11.872 188.294 12.64C187.206 13.408 186.662 14.416 186.662 15.664C186.662 16.624 186.966 17.392 187.574 17.968C188.214 18.544 188.998 18.976 189.926 19.264C190.854 19.52 192.134 19.792 193.766 20.08C195.782 20.464 197.398 20.848 198.614 21.232C199.83 21.616 200.87 22.272 201.734 23.2C202.598 24.128 203.03 25.408 203.03 27.04C203.03 29.248 202.102 31.008 200.246 32.32C198.422 33.6 195.878 34.24 192.614 34.24ZM209.666 34.24C208.962 34.24 208.354 33.984 207.842 33.472C207.362 32.96 207.122 32.336 207.122 31.6C207.122 30.864 207.362 30.256 207.842 29.776C208.354 29.264 208.962 29.008 209.666 29.008C210.37 29.008 210.978 29.264 211.49 29.776C212.002 30.256 212.258 30.864 212.258 31.6C212.258 32.336 212.002 32.96 211.49 33.472C210.978 33.984 210.37 34.24 209.666 34.24ZM250.99 8.56C254.158 8.56 256.638 9.472 258.43 11.296C260.254 13.12 261.166 15.808 261.166 19.36V34H257.758V19.696C257.758 17.072 257.118 15.072 255.838 13.696C254.59 12.32 252.814 11.632 250.51 11.632C247.886 11.632 245.822 12.448 244.318 14.08C242.814 15.68 242.062 17.904 242.062 20.752V34H238.654V19.696C238.654 17.072 238.014 15.072 236.734 13.696C235.486 12.32 233.694 11.632 231.358 11.632C228.766 11.632 226.702 12.448 225.166 14.08C223.662 15.68 222.91 17.904 222.91 20.752V34H219.502V8.752H222.766V13.36C223.662 11.824 224.91 10.64 226.51 9.808C228.11 8.976 229.95 8.56 232.03 8.56C234.142 8.56 235.966 9.008 237.502 9.904C239.07 10.8 240.238 12.128 241.006 13.888C241.934 12.224 243.262 10.928 244.99 10C246.75 9.04 248.75 8.56 250.99 8.56ZM292.486 22.432H271.366C271.558 25.056 272.566 27.184 274.39 28.816C276.214 30.416 278.518 31.216 281.302 31.216C282.87 31.216 284.31 30.944 285.622 30.4C286.934 29.824 288.07 28.992 289.03 27.904L290.95 30.112C289.83 31.456 288.422 32.48 286.726 33.184C285.062 33.888 283.222 34.24 281.206 34.24C278.614 34.24 276.31 33.696 274.294 32.608C272.31 31.488 270.758 29.952 269.638 28C268.518 26.048 267.958 23.84 267.958 21.376C267.958 18.912 268.486 16.704 269.542 14.752C270.63 12.8 272.102 11.28 273.958 10.192C275.846 9.104 277.958 8.56 280.294 8.56C282.63 8.56 284.726 9.104 286.582 10.192C288.438 11.28 289.894 12.8 290.95 14.752C292.006 16.672 292.534 18.88 292.534 21.376L292.486 22.432ZM280.294 11.488C277.862 11.488 275.814 12.272 274.15 13.84C272.518 15.376 271.59 17.392 271.366 19.888H289.27C289.046 17.392 288.102 15.376 286.438 13.84C284.806 12.272 282.758 11.488 280.294 11.488Z" fill="black"/>
</svg>
